<svg width="800" height="640" viewBox="0 0 800 640" fill="none" xmlns="http://www.w3.org/2000/svg">
<path d="M53.3333 0C24 0 0 24 0 53.3333V106.667C0 136 24 160 53.3333 160H613.333C642.667 160 666.667 136 666.667 106.667V53.3333C666.667 24 642.667 0 613.333 0H53.3333ZM53.3333 493.333V546.667C53.3333 553.653 59.68 560 66.6667 560H248.347L217.493 590C204.693 603.253 224.96 620.853 235.84 609.2L289.173 555.867C294.32 550.88 294.32 541.627 289.173 536.667L235.84 483.333C225.253 472.747 205.44 490.48 217.493 502.533L248.32 533.333H80V493.333C80 475.6 53.3333 476.16 53.3333 493.333ZM426.667 480C397.333 480 373.333 504 373.333 533.333V586.667C373.333 616 397.333 640 426.667 640H746.667C776 640 800 616 800 586.667V533.333C800 504 776 480 746.667 480H426.667ZM53.3333 240C24 240 0 264 0 293.333V346.667C0 376 24 400 53.3333 400H613.333C642.667 400 666.667 376 666.667 346.667V293.333C666.667 264 642.667 240 613.333 240H53.3333Z" fill="white"/>
</svg>
